<svg xmlns="http://www.w3.org/2000/svg" xmlns:xlink="http://www.w3.org/1999/xlink" width="144" zoomAndPan="magnify" viewBox="0 0 108 107.999999" height="144" preserveAspectRatio="xMidYMid meet" version="1.0"><defs><g/><clipPath id="16c4d60a1f"><path d="M 71 30 L 96.839844 30 L 96.839844 78 L 71 78 Z M 71 30 " clip-rule="nonzero"/></clipPath><clipPath id="033c9397ce"><path d="M 11.339844 30 L 38 30 L 38 78 L 11.339844 78 Z M 11.339844 30 " clip-rule="nonzero"/></clipPath><clipPath id="21fbc2014b"><path d="M 40 22.058594 L 68 22.058594 L 68 85.808594 L 40 85.808594 Z M 40 22.058594 " clip-rule="nonzero"/></clipPath></defs><rect x="-10.8" width="129.6" fill="#ffffff" y="-10.8" height="129.599998" fill-opacity="1"/><rect x="-10.8" width="129.6" fill="#ffffff" y="-10.8" height="129.599998" fill-opacity="1"/><rect x="-10.8" width="129.6" fill="#000000" y="-10.8" height="129.599998" fill-opacity="1"/><g clip-path="url(#16c4d60a1f)"><path fill="#fbfbfb" d="M 73.125 77.667969 C 72.617188 77.667969 72.109375 77.472656 71.722656 77.089844 C 70.949219 76.320312 70.949219 75.070312 71.722656 74.296875 L 92.035156 54.070312 L 71.722656 33.847656 C 70.949219 33.074219 70.949219 31.824219 71.722656 31.054688 C 72.496094 30.285156 73.753906 30.285156 74.527344 31.054688 L 96.238281 52.675781 C 96.613281 53.046875 96.820312 53.546875 96.820312 54.070312 C 96.820312 54.59375 96.613281 55.097656 96.238281 55.46875 L 74.527344 77.089844 C 74.140625 77.476562 73.632812 77.667969 73.125 77.667969 Z M 73.125 77.667969 " fill-opacity="1" fill-rule="nonzero"/></g><g clip-path="url(#033c9397ce)"><path fill="#fbfbfb" d="M 35.054688 77.667969 C 34.550781 77.667969 34.042969 77.472656 33.65625 77.089844 L 11.941406 55.46875 C 11.570312 55.097656 11.359375 54.597656 11.359375 54.074219 C 11.359375 53.550781 11.570312 53.046875 11.941406 52.675781 L 33.65625 31.054688 C 34.429688 30.285156 35.683594 30.285156 36.457031 31.054688 C 37.230469 31.828125 37.230469 33.074219 36.457031 33.847656 L 16.144531 54.074219 L 36.457031 74.296875 C 37.230469 75.070312 37.230469 76.320312 36.457031 77.089844 C 36.070312 77.476562 35.5625 77.667969 35.054688 77.667969 Z M 35.054688 77.667969 " fill-opacity="1" fill-rule="nonzero"/></g><g clip-path="url(#21fbc2014b)"><path fill="#fbfbfb" d="M 42.292969 85.820312 C 42.050781 85.820312 41.804688 85.773438 41.566406 85.679688 C 40.546875 85.28125 40.046875 84.132812 40.449219 83.121094 L 64.042969 23.574219 C 64.445312 22.5625 65.597656 22.0625 66.617188 22.464844 C 67.632812 22.863281 68.132812 24.007812 67.730469 25.023438 L 44.136719 84.570312 C 43.828125 85.34375 43.082031 85.820312 42.292969 85.820312 Z M 42.292969 85.820312 " fill-opacity="1" fill-rule="nonzero"/></g><g fill="#7ed957" fill-opacity="1"><g transform="translate(32.230762, 27.651991)"><g><path d="M 0.421875 -0.40625 L -5.53125 -6.65625 C -5.800781 -6.9375 -5.9375 -7.257812 -5.9375 -7.625 C -5.9375 -7.988281 -5.804688 -8.296875 -5.546875 -8.546875 L -4.25 -9.78125 C -3.988281 -10.03125 -3.675781 -10.144531 -3.3125 -10.125 C -2.945312 -10.101562 -2.628906 -9.953125 -2.359375 -9.671875 L 3.59375 -3.421875 L 2.453125 -2.34375 L -0.484375 -5.421875 L -0.921875 -4.09375 L 1.5625 -1.484375 Z M -2.140625 -5.375 L -1.703125 -6.703125 L -3.40625 -8.5 L -4.296875 -7.640625 Z M -2.140625 -5.375 "/></g></g></g><g fill="#7ed957" fill-opacity="1"><g transform="translate(37.888067, 22.637185)"><g><path d="M 1.90625 -1.015625 L 0.515625 -0.265625 L -4.203125 -9.09375 L -2.8125 -9.84375 L -2.46875 -9.203125 C -2.476562 -9.347656 -2.460938 -9.484375 -2.421875 -9.609375 C -2.316406 -9.960938 -2.109375 -10.222656 -1.796875 -10.390625 L -1.484375 -10.5625 C -1.171875 -10.726562 -0.835938 -10.753906 -0.484375 -10.640625 C -0.140625 -10.523438 0.117188 -10.300781 0.296875 -9.96875 L 4.375 -2.34375 L 2.984375 -1.59375 L -1.015625 -9.09375 L -2.09375 -8.515625 Z M 1.90625 -1.015625 "/></g></g></g><g fill="#7ed957" fill-opacity="1"><g transform="translate(44.702536, 19.328068)"><g><path d="M 1.75 -0.40625 L -0.15625 -8.6875 L -1.6875 -8.328125 L -2.015625 -9.8125 L 2.609375 -10.875 L 2.9375 -9.390625 L 1.390625 -9.046875 L 3.296875 -0.765625 Z M 1.75 -0.40625 "/></g></g></g><g fill="#7ed957" fill-opacity="1"><g transform="translate(51.790316, 17.952519)"><g><path d="M 5.3125 -8.453125 L 5.015625 -1.1875 C 5.003906 -0.800781 4.863281 -0.476562 4.59375 -0.21875 C 4.332031 0.0390625 4.023438 0.160156 3.671875 0.140625 L 1.875 0.078125 C 1.519531 0.0546875 1.21875 -0.09375 0.96875 -0.375 C 0.726562 -0.65625 0.613281 -0.984375 0.625 -1.359375 L 0.921875 -8.625 C 0.929688 -9.007812 1.066406 -9.328125 1.328125 -9.578125 C 1.597656 -9.835938 1.910156 -9.957031 2.265625 -9.9375 L 4.0625 -9.875 C 4.414062 -9.851562 4.710938 -9.707031 4.953125 -9.4375 C 5.203125 -9.164062 5.320312 -8.835938 5.3125 -8.453125 Z M 3.453125 -1.390625 L 3.71875 -8.375 L 2.484375 -8.421875 L 2.21875 -1.4375 Z M 3.453125 -1.390625 "/></g></g></g><g fill="#7ed957" fill-opacity="1"><g transform="translate(59.328915, 18.520675)"><g><path d="M 2.046875 0.65625 L 0.546875 0.171875 L 3.59375 -9.359375 L 5.09375 -8.875 L 4.875 -8.1875 C 4.976562 -8.28125 5.09375 -8.363281 5.21875 -8.4375 C 5.539062 -8.601562 5.867188 -8.628906 6.203125 -8.515625 L 6.546875 -8.40625 C 6.878906 -8.300781 7.128906 -8.082031 7.296875 -7.75 C 7.460938 -7.425781 7.488281 -7.082031 7.375 -6.71875 L 4.734375 1.515625 L 3.234375 1.03125 L 5.828125 -7.0625 L 4.640625 -7.4375 Z M 2.046875 0.65625 "/></g></g></g><g fill="#7ed957" fill-opacity="1"><g transform="translate(66.519495, 21.243878)"><g><path d="M 0.5 0.296875 L 5.609375 -8.3125 L 6.96875 -7.515625 L 1.859375 1.09375 Z M 0.5 0.296875 "/></g></g></g><g fill="#7ed957" fill-opacity="1"><g transform="translate(70.694782, 23.819994)"><g><path d="M 9.546875 -2.828125 L 4.546875 2.421875 C 4.273438 2.703125 3.957031 2.851562 3.59375 2.875 C 3.226562 2.894531 2.914062 2.78125 2.65625 2.53125 L 1.359375 1.296875 C 1.097656 1.046875 0.96875 0.734375 0.96875 0.359375 C 0.976562 -0.00390625 1.113281 -0.320312 1.375 -0.59375 L 6.375 -5.84375 C 6.644531 -6.125 6.960938 -6.273438 7.328125 -6.296875 C 7.691406 -6.316406 8.003906 -6.203125 8.265625 -5.953125 L 9.5625 -4.71875 C 9.820312 -4.46875 9.953125 -4.160156 9.953125 -3.796875 C 9.953125 -3.429688 9.816406 -3.109375 9.546875 -2.828125 Z M 3.5 1.25 L 8.3125 -3.8125 L 7.421875 -4.671875 L 2.609375 0.390625 Z M 3.5 1.25 "/></g></g></g><g fill="#7ed957" fill-opacity="1"><g transform="translate(27.998874, 91.142564)"><g><path d="M 0.515625 0.359375 L 5.921875 -7.328125 C 6.171875 -7.679688 6.488281 -7.894531 6.875 -7.96875 C 7.269531 -8.039062 7.628906 -7.96875 7.953125 -7.75 L 9.546875 -6.625 C 9.867188 -6.394531 10.054688 -6.082031 10.109375 -5.6875 C 10.171875 -5.300781 10.078125 -4.929688 9.828125 -4.578125 L 4.421875 3.109375 L 3.015625 2.125 L 5.671875 -1.65625 L 4.171875 -1.84375 L 1.921875 1.359375 Z M 5.28125 -3.421875 L 6.796875 -3.234375 L 8.34375 -5.4375 L 7.25 -6.203125 Z M 5.28125 -3.421875 "/></g></g></g><g fill="#7ed957" fill-opacity="1"><g transform="translate(36.565293, 96.484726)"><g><path d="M 3.65625 1.328125 L 1.75 0.625 L 3.640625 -10.265625 L 5.296875 -9.671875 L 4.0625 -2.765625 L 7.515625 -8.875 L 9.171875 -8.265625 Z M 3.65625 1.328125 "/></g></g></g><g fill="#7ed957" fill-opacity="1"><g transform="translate(45.931006, 99.3203)"><g><path d="M 6.15625 -8.9375 L 5.515625 -1.046875 C 5.472656 -0.628906 5.300781 -0.285156 5 -0.015625 C 4.707031 0.242188 4.367188 0.359375 3.984375 0.328125 L 2.046875 0.171875 C 1.648438 0.140625 1.328125 -0.03125 1.078125 -0.34375 C 0.828125 -0.664062 0.71875 -1.03125 0.75 -1.4375 L 1.390625 -9.328125 C 1.421875 -9.753906 1.585938 -10.097656 1.890625 -10.359375 C 2.191406 -10.617188 2.539062 -10.734375 2.9375 -10.703125 L 4.875 -10.546875 C 5.257812 -10.515625 5.578125 -10.34375 5.828125 -10.03125 C 6.078125 -9.726562 6.1875 -9.363281 6.15625 -8.9375 Z M 3.8125 -1.34375 L 4.421875 -8.921875 L 3.109375 -9.03125 L 2.5 -1.453125 Z M 3.8125 -1.34375 "/></g></g></g><g fill="#7ed957" fill-opacity="1"><g transform="translate(55.988352, 99.558939)"><g><path d="M 0.609375 -0.109375 L -1.296875 -10.84375 L 0.421875 -11.140625 L 2.046875 -2.015625 L 4.5 -2.453125 L 4.78125 -0.84375 Z M 0.609375 -0.109375 "/></g></g></g><g fill="#7ed957" fill-opacity="1"><g transform="translate(64.708326, 97.483028)"><g><path d="M 0.578125 -0.234375 L -3.546875 -10.328125 L -1.9375 -10.984375 L 2.1875 -0.890625 Z M 0.578125 -0.234375 "/></g></g></g><g fill="#7ed957" fill-opacity="1"><g transform="translate(71.002844, 94.622007)"><g><path d="M -0.984375 -10.796875 L 3.5625 -4.328125 C 3.800781 -3.984375 3.890625 -3.613281 3.828125 -3.21875 C 3.773438 -2.832031 3.585938 -2.523438 3.265625 -2.296875 L 1.671875 -1.171875 C 1.347656 -0.953125 0.988281 -0.878906 0.59375 -0.953125 C 0.207031 -1.035156 -0.101562 -1.242188 -0.34375 -1.578125 L -4.890625 -8.046875 C -5.140625 -8.398438 -5.234375 -8.773438 -5.171875 -9.171875 C -5.117188 -9.566406 -4.929688 -9.875 -4.609375 -10.09375 L -3.015625 -11.21875 C -2.691406 -11.445312 -2.332031 -11.519531 -1.9375 -11.4375 C -1.550781 -11.363281 -1.234375 -11.148438 -0.984375 -10.796875 Z M 2.078125 -3.46875 L -2.3125 -9.6875 L -3.40625 -8.921875 L 0.984375 -2.703125 Z M 2.078125 -3.46875 "/></g></g></g><g fill="#ffffff" fill-opacity="1"><g transform="translate(36.681503, 107.121594)"><g><path d="M 0.78125 0 C 0.75 0 0.726562 -0.015625 0.71875 -0.046875 L 0.09375 -2.765625 L 0.09375 -2.78125 C 0.09375 -2.8125 0.109375 -2.828125 0.140625 -2.828125 L 0.625 -2.828125 C 0.65625 -2.828125 0.675781 -2.8125 0.6875 -2.78125 L 0.984375 -1.234375 C 0.984375 -1.222656 0.984375 -1.21875 0.984375 -1.21875 C 0.992188 -1.21875 1.003906 -1.222656 1.015625 -1.234375 L 1.3125 -2.78125 C 1.3125 -2.8125 1.328125 -2.828125 1.359375 -2.828125 L 1.8125 -2.828125 C 1.832031 -2.828125 1.847656 -2.8125 1.859375 -2.78125 L 2.1875 -1.234375 C 2.1875 -1.222656 2.1875 -1.21875 2.1875 -1.21875 C 2.195312 -1.21875 2.203125 -1.222656 2.203125 -1.234375 L 2.5 -2.78125 C 2.5 -2.8125 2.515625 -2.828125 2.546875 -2.828125 L 3.015625 -2.828125 C 3.054688 -2.828125 3.070312 -2.804688 3.0625 -2.765625 L 2.46875 -0.046875 C 2.46875 -0.015625 2.453125 0 2.421875 0 L 1.96875 0 C 1.9375 0 1.921875 -0.015625 1.921875 -0.046875 L 1.59375 -1.671875 C 1.582031 -1.671875 1.570312 -1.671875 1.5625 -1.671875 L 1.265625 -0.046875 C 1.265625 -0.015625 1.25 0 1.21875 0 Z M 0.78125 0 "/></g></g></g><g fill="#ffffff" fill-opacity="1"><g transform="translate(40.441599, 107.121594)"><g><path d="M 1.9375 -2.375 C 1.9375 -2.363281 1.929688 -2.351562 1.921875 -2.34375 C 1.910156 -2.332031 1.894531 -2.328125 1.875 -2.328125 L 0.796875 -2.328125 C 0.785156 -2.328125 0.78125 -2.320312 0.78125 -2.3125 L 0.78125 -1.6875 C 0.78125 -1.675781 0.785156 -1.671875 0.796875 -1.671875 L 1.46875 -1.671875 C 1.488281 -1.671875 1.503906 -1.664062 1.515625 -1.65625 C 1.523438 -1.644531 1.53125 -1.628906 1.53125 -1.609375 L 1.53125 -1.21875 C 1.53125 -1.207031 1.523438 -1.195312 1.515625 -1.1875 C 1.503906 -1.175781 1.488281 -1.171875 1.46875 -1.171875 L 0.796875 -1.171875 C 0.785156 -1.171875 0.78125 -1.164062 0.78125 -1.15625 L 0.78125 -0.515625 C 0.78125 -0.492188 0.785156 -0.484375 0.796875 -0.484375 L 1.875 -0.484375 C 1.894531 -0.484375 1.910156 -0.476562 1.921875 -0.46875 C 1.929688 -0.457031 1.9375 -0.445312 1.9375 -0.4375 L 1.9375 -0.046875 C 1.9375 -0.0351562 1.929688 -0.0234375 1.921875 -0.015625 C 1.910156 -0.00390625 1.894531 0 1.875 0 L 0.265625 0 C 0.242188 0 0.226562 -0.00390625 0.21875 -0.015625 C 0.21875 -0.0234375 0.21875 -0.0351562 0.21875 -0.046875 L 0.21875 -2.78125 C 0.21875 -2.789062 0.21875 -2.800781 0.21875 -2.8125 C 0.226562 -2.820312 0.242188 -2.828125 0.265625 -2.828125 L 1.875 -2.828125 C 1.894531 -2.828125 1.910156 -2.820312 1.921875 -2.8125 C 1.929688 -2.800781 1.9375 -2.789062 1.9375 -2.78125 Z M 1.9375 -2.375 "/></g></g></g><g fill="#ffffff" fill-opacity="1"><g transform="translate(43.105601, 107.121594)"><g><path d="M 2.046875 -0.78125 C 2.046875 -0.53125 1.960938 -0.335938 1.796875 -0.203125 C 1.640625 -0.0664062 1.429688 0 1.171875 0 L 0.265625 0 C 0.242188 0 0.226562 -0.00390625 0.21875 -0.015625 C 0.21875 -0.0234375 0.21875 -0.0351562 0.21875 -0.046875 L 0.21875 -2.78125 C 0.21875 -2.789062 0.21875 -2.800781 0.21875 -2.8125 C 0.226562 -2.820312 0.242188 -2.828125 0.265625 -2.828125 L 1.109375 -2.828125 C 1.390625 -2.828125 1.609375 -2.757812 1.765625 -2.625 C 1.929688 -2.5 2.015625 -2.304688 2.015625 -2.046875 C 2.015625 -1.785156 1.910156 -1.59375 1.703125 -1.46875 C 1.691406 -1.457031 1.691406 -1.453125 1.703125 -1.453125 C 1.929688 -1.316406 2.046875 -1.09375 2.046875 -0.78125 Z M 0.796875 -2.328125 C 0.785156 -2.328125 0.78125 -2.320312 0.78125 -2.3125 L 0.78125 -1.6875 C 0.78125 -1.664062 0.785156 -1.65625 0.796875 -1.65625 L 1.109375 -1.65625 C 1.210938 -1.65625 1.296875 -1.6875 1.359375 -1.75 C 1.421875 -1.8125 1.453125 -1.894531 1.453125 -2 C 1.453125 -2.101562 1.421875 -2.179688 1.359375 -2.234375 C 1.304688 -2.296875 1.222656 -2.328125 1.109375 -2.328125 Z M 1.140625 -0.484375 C 1.242188 -0.484375 1.328125 -0.515625 1.390625 -0.578125 C 1.453125 -0.648438 1.484375 -0.742188 1.484375 -0.859375 C 1.484375 -0.972656 1.453125 -1.0625 1.390625 -1.125 C 1.328125 -1.1875 1.242188 -1.21875 1.140625 -1.21875 L 0.796875 -1.21875 C 0.785156 -1.21875 0.78125 -1.210938 0.78125 -1.203125 L 0.78125 -0.515625 C 0.78125 -0.492188 0.785156 -0.484375 0.796875 -0.484375 Z M 1.140625 -0.484375 "/></g></g></g><g fill="#ffffff" fill-opacity="1"><g transform="translate(45.906618, 107.121594)"><g/></g></g><g fill="#ffffff" fill-opacity="1"><g transform="translate(47.317368, 107.121594)"><g><path d="M 0.265625 0 C 0.242188 0 0.226562 -0.00390625 0.21875 -0.015625 C 0.21875 -0.0234375 0.21875 -0.0351562 0.21875 -0.046875 L 0.21875 -2.78125 C 0.21875 -2.789062 0.21875 -2.800781 0.21875 -2.8125 C 0.226562 -2.820312 0.242188 -2.828125 0.265625 -2.828125 L 1.125 -2.828125 C 1.3125 -2.828125 1.472656 -2.789062 1.609375 -2.71875 C 1.742188 -2.65625 1.847656 -2.5625 1.921875 -2.4375 C 2.003906 -2.3125 2.046875 -2.164062 2.046875 -2 L 2.046875 -0.8125 C 2.046875 -0.65625 2.003906 -0.515625 1.921875 -0.390625 C 1.847656 -0.265625 1.742188 -0.164062 1.609375 -0.09375 C 1.472656 -0.03125 1.3125 0 1.125 0 Z M 0.78125 -0.515625 C 0.78125 -0.492188 0.785156 -0.484375 0.796875 -0.484375 L 1.125 -0.484375 C 1.226562 -0.484375 1.3125 -0.519531 1.375 -0.59375 C 1.4375 -0.664062 1.46875 -0.765625 1.46875 -0.890625 L 1.46875 -1.9375 C 1.46875 -2.0625 1.4375 -2.15625 1.375 -2.21875 C 1.3125 -2.289062 1.226562 -2.328125 1.125 -2.328125 L 0.796875 -2.328125 C 0.785156 -2.328125 0.78125 -2.320312 0.78125 -2.3125 Z M 0.78125 -0.515625 "/></g></g></g><g fill="#ffffff" fill-opacity="1"><g transform="translate(50.126442, 107.121594)"><g><path d="M 1.9375 -2.375 C 1.9375 -2.363281 1.929688 -2.351562 1.921875 -2.34375 C 1.910156 -2.332031 1.894531 -2.328125 1.875 -2.328125 L 0.796875 -2.328125 C 0.785156 -2.328125 0.78125 -2.320312 0.78125 -2.3125 L 0.78125 -1.6875 C 0.78125 -1.675781 0.785156 -1.671875 0.796875 -1.671875 L 1.46875 -1.671875 C 1.488281 -1.671875 1.503906 -1.664062 1.515625 -1.65625 C 1.523438 -1.644531 1.53125 -1.628906 1.53125 -1.609375 L 1.53125 -1.21875 C 1.53125 -1.207031 1.523438 -1.195312 1.515625 -1.1875 C 1.503906 -1.175781 1.488281 -1.171875 1.46875 -1.171875 L 0.796875 -1.171875 C 0.785156 -1.171875 0.78125 -1.164062 0.78125 -1.15625 L 0.78125 -0.515625 C 0.78125 -0.492188 0.785156 -0.484375 0.796875 -0.484375 L 1.875 -0.484375 C 1.894531 -0.484375 1.910156 -0.476562 1.921875 -0.46875 C 1.929688 -0.457031 1.9375 -0.445312 1.9375 -0.4375 L 1.9375 -0.046875 C 1.9375 -0.0351562 1.929688 -0.0234375 1.921875 -0.015625 C 1.910156 -0.00390625 1.894531 0 1.875 0 L 0.265625 0 C 0.242188 0 0.226562 -0.00390625 0.21875 -0.015625 C 0.21875 -0.0234375 0.21875 -0.0351562 0.21875 -0.046875 L 0.21875 -2.78125 C 0.21875 -2.789062 0.21875 -2.800781 0.21875 -2.8125 C 0.226562 -2.820312 0.242188 -2.828125 0.265625 -2.828125 L 1.875 -2.828125 C 1.894531 -2.828125 1.910156 -2.820312 1.921875 -2.8125 C 1.929688 -2.800781 1.9375 -2.789062 1.9375 -2.78125 Z M 1.9375 -2.375 "/></g></g></g><g fill="#ffffff" fill-opacity="1"><g transform="translate(52.790444, 107.121594)"><g><path d="M 0.859375 0 C 0.828125 0 0.804688 -0.015625 0.796875 -0.046875 L 0.09375 -2.765625 L 0.09375 -2.78125 C 0.09375 -2.8125 0.109375 -2.828125 0.140625 -2.828125 L 0.65625 -2.828125 C 0.6875 -2.828125 0.703125 -2.8125 0.703125 -2.78125 L 1.109375 -0.90625 C 1.117188 -0.894531 1.125 -0.890625 1.125 -0.890625 C 1.132812 -0.890625 1.140625 -0.894531 1.140625 -0.90625 L 1.546875 -2.78125 C 1.546875 -2.8125 1.5625 -2.828125 1.59375 -2.828125 L 2.09375 -2.828125 C 2.132812 -2.828125 2.148438 -2.804688 2.140625 -2.765625 L 1.421875 -0.046875 C 1.421875 -0.015625 1.40625 0 1.375 0 Z M 0.859375 0 "/></g></g></g><g fill="#ffffff" fill-opacity="1"><g transform="translate(55.631756, 107.121594)"><g><path d="M 1.9375 -2.375 C 1.9375 -2.363281 1.929688 -2.351562 1.921875 -2.34375 C 1.910156 -2.332031 1.894531 -2.328125 1.875 -2.328125 L 0.796875 -2.328125 C 0.785156 -2.328125 0.78125 -2.320312 0.78125 -2.3125 L 0.78125 -1.6875 C 0.78125 -1.675781 0.785156 -1.671875 0.796875 -1.671875 L 1.46875 -1.671875 C 1.488281 -1.671875 1.503906 -1.664062 1.515625 -1.65625 C 1.523438 -1.644531 1.53125 -1.628906 1.53125 -1.609375 L 1.53125 -1.21875 C 1.53125 -1.207031 1.523438 -1.195312 1.515625 -1.1875 C 1.503906 -1.175781 1.488281 -1.171875 1.46875 -1.171875 L 0.796875 -1.171875 C 0.785156 -1.171875 0.78125 -1.164062 0.78125 -1.15625 L 0.78125 -0.515625 C 0.78125 -0.492188 0.785156 -0.484375 0.796875 -0.484375 L 1.875 -0.484375 C 1.894531 -0.484375 1.910156 -0.476562 1.921875 -0.46875 C 1.929688 -0.457031 1.9375 -0.445312 1.9375 -0.4375 L 1.9375 -0.046875 C 1.9375 -0.0351562 1.929688 -0.0234375 1.921875 -0.015625 C 1.910156 -0.00390625 1.894531 0 1.875 0 L 0.265625 0 C 0.242188 0 0.226562 -0.00390625 0.21875 -0.015625 C 0.21875 -0.0234375 0.21875 -0.0351562 0.21875 -0.046875 L 0.21875 -2.78125 C 0.21875 -2.789062 0.21875 -2.800781 0.21875 -2.8125 C 0.226562 -2.820312 0.242188 -2.828125 0.265625 -2.828125 L 1.875 -2.828125 C 1.894531 -2.828125 1.910156 -2.820312 1.921875 -2.8125 C 1.929688 -2.800781 1.9375 -2.789062 1.9375 -2.78125 Z M 1.9375 -2.375 "/></g></g></g><g fill="#ffffff" fill-opacity="1"><g transform="translate(58.295758, 107.121594)"><g><path d="M 0.265625 0 C 0.242188 0 0.226562 -0.00390625 0.21875 -0.015625 C 0.21875 -0.0234375 0.21875 -0.0351562 0.21875 -0.046875 L 0.21875 -2.78125 C 0.21875 -2.789062 0.21875 -2.800781 0.21875 -2.8125 C 0.226562 -2.820312 0.242188 -2.828125 0.265625 -2.828125 L 0.734375 -2.828125 C 0.742188 -2.828125 0.753906 -2.820312 0.765625 -2.8125 C 0.773438 -2.800781 0.78125 -2.789062 0.78125 -2.78125 L 0.78125 -0.515625 C 0.78125 -0.492188 0.785156 -0.484375 0.796875 -0.484375 L 1.875 -0.484375 C 1.894531 -0.484375 1.910156 -0.476562 1.921875 -0.46875 C 1.929688 -0.457031 1.9375 -0.445312 1.9375 -0.4375 L 1.9375 -0.046875 C 1.9375 -0.0351562 1.929688 -0.0234375 1.921875 -0.015625 C 1.910156 -0.00390625 1.894531 0 1.875 0 Z M 0.265625 0 "/></g></g></g><g fill="#ffffff" fill-opacity="1"><g transform="translate(60.911402, 107.121594)"><g><path d="M 1.09375 0.03125 C 0.914062 0.03125 0.753906 -0.00390625 0.609375 -0.078125 C 0.472656 -0.148438 0.363281 -0.253906 0.28125 -0.390625 C 0.207031 -0.523438 0.171875 -0.6875 0.171875 -0.875 L 0.171875 -1.953125 C 0.171875 -2.128906 0.207031 -2.285156 0.28125 -2.421875 C 0.363281 -2.554688 0.472656 -2.660156 0.609375 -2.734375 C 0.753906 -2.816406 0.914062 -2.859375 1.09375 -2.859375 C 1.28125 -2.859375 1.445312 -2.816406 1.59375 -2.734375 C 1.738281 -2.660156 1.847656 -2.554688 1.921875 -2.421875 C 2.003906 -2.285156 2.046875 -2.128906 2.046875 -1.953125 L 2.046875 -0.875 C 2.046875 -0.6875 2.003906 -0.523438 1.921875 -0.390625 C 1.847656 -0.253906 1.738281 -0.148438 1.59375 -0.078125 C 1.445312 -0.00390625 1.28125 0.03125 1.09375 0.03125 Z M 1.09375 -0.453125 C 1.207031 -0.453125 1.296875 -0.488281 1.359375 -0.5625 C 1.429688 -0.632812 1.46875 -0.726562 1.46875 -0.84375 L 1.46875 -1.96875 C 1.46875 -2.082031 1.429688 -2.175781 1.359375 -2.25 C 1.296875 -2.320312 1.207031 -2.359375 1.09375 -2.359375 C 0.988281 -2.359375 0.898438 -2.320312 0.828125 -2.25 C 0.765625 -2.175781 0.734375 -2.082031 0.734375 -1.96875 L 0.734375 -0.84375 C 0.734375 -0.726562 0.765625 -0.632812 0.828125 -0.5625 C 0.898438 -0.488281 0.988281 -0.453125 1.09375 -0.453125 Z M 1.09375 -0.453125 "/></g></g></g><g fill="#ffffff" fill-opacity="1"><g transform="translate(63.720476, 107.121594)"><g><path d="M 1.21875 -2.828125 C 1.382812 -2.828125 1.53125 -2.789062 1.65625 -2.71875 C 1.78125 -2.644531 1.875 -2.539062 1.9375 -2.40625 C 2.007812 -2.28125 2.046875 -2.128906 2.046875 -1.953125 C 2.046875 -1.785156 2.007812 -1.640625 1.9375 -1.515625 C 1.875 -1.390625 1.78125 -1.289062 1.65625 -1.21875 C 1.53125 -1.144531 1.382812 -1.109375 1.21875 -1.109375 L 0.796875 -1.109375 C 0.773438 -1.109375 0.765625 -1.101562 0.765625 -1.09375 L 0.765625 -0.046875 C 0.765625 -0.0351562 0.757812 -0.0234375 0.75 -0.015625 C 0.738281 -0.00390625 0.726562 0 0.71875 0 L 0.25 0 C 0.238281 0 0.226562 -0.00390625 0.21875 -0.015625 C 0.207031 -0.0234375 0.203125 -0.0351562 0.203125 -0.046875 L 0.203125 -2.78125 C 0.203125 -2.789062 0.207031 -2.800781 0.21875 -2.8125 C 0.226562 -2.820312 0.238281 -2.828125 0.25 -2.828125 Z M 1.125 -1.5625 C 1.238281 -1.5625 1.328125 -1.597656 1.390625 -1.671875 C 1.453125 -1.742188 1.484375 -1.835938 1.484375 -1.953125 C 1.484375 -2.066406 1.453125 -2.15625 1.390625 -2.21875 C 1.328125 -2.289062 1.238281 -2.328125 1.125 -2.328125 L 0.796875 -2.328125 C 0.773438 -2.328125 0.765625 -2.320312 0.765625 -2.3125 L 0.765625 -1.59375 C 0.765625 -1.570312 0.773438 -1.5625 0.796875 -1.5625 Z M 1.125 -1.5625 "/></g></g></g><g fill="#ffffff" fill-opacity="1"><g transform="translate(66.465075, 107.121594)"><g><path d="M 1.9375 -2.375 C 1.9375 -2.363281 1.929688 -2.351562 1.921875 -2.34375 C 1.910156 -2.332031 1.894531 -2.328125 1.875 -2.328125 L 0.796875 -2.328125 C 0.785156 -2.328125 0.78125 -2.320312 0.78125 -2.3125 L 0.78125 -1.6875 C 0.78125 -1.675781 0.785156 -1.671875 0.796875 -1.671875 L 1.46875 -1.671875 C 1.488281 -1.671875 1.503906 -1.664062 1.515625 -1.65625 C 1.523438 -1.644531 1.53125 -1.628906 1.53125 -1.609375 L 1.53125 -1.21875 C 1.53125 -1.207031 1.523438 -1.195312 1.515625 -1.1875 C 1.503906 -1.175781 1.488281 -1.171875 1.46875 -1.171875 L 0.796875 -1.171875 C 0.785156 -1.171875 0.78125 -1.164062 0.78125 -1.15625 L 0.78125 -0.515625 C 0.78125 -0.492188 0.785156 -0.484375 0.796875 -0.484375 L 1.875 -0.484375 C 1.894531 -0.484375 1.910156 -0.476562 1.921875 -0.46875 C 1.929688 -0.457031 1.9375 -0.445312 1.9375 -0.4375 L 1.9375 -0.046875 C 1.9375 -0.0351562 1.929688 -0.0234375 1.921875 -0.015625 C 1.910156 -0.00390625 1.894531 0 1.875 0 L 0.265625 0 C 0.242188 0 0.226562 -0.00390625 0.21875 -0.015625 C 0.21875 -0.0234375 0.21875 -0.0351562 0.21875 -0.046875 L 0.21875 -2.78125 C 0.21875 -2.789062 0.21875 -2.800781 0.21875 -2.8125 C 0.226562 -2.820312 0.242188 -2.828125 0.265625 -2.828125 L 1.875 -2.828125 C 1.894531 -2.828125 1.910156 -2.820312 1.921875 -2.8125 C 1.929688 -2.800781 1.9375 -2.789062 1.9375 -2.78125 Z M 1.9375 -2.375 "/></g></g></g><g fill="#ffffff" fill-opacity="1"><g transform="translate(69.129077, 107.121594)"><g><path d="M 1.546875 0 C 1.515625 0 1.492188 -0.015625 1.484375 -0.046875 L 1.078125 -1.15625 C 1.066406 -1.164062 1.0625 -1.171875 1.0625 -1.171875 L 0.796875 -1.171875 C 0.785156 -1.171875 0.78125 -1.164062 0.78125 -1.15625 L 0.78125 -0.046875 C 0.78125 -0.0351562 0.773438 -0.0234375 0.765625 -0.015625 C 0.753906 -0.00390625 0.742188 0 0.734375 0 L 0.265625 0 C 0.242188 0 0.226562 -0.00390625 0.21875 -0.015625 C 0.21875 -0.0234375 0.21875 -0.0351562 0.21875 -0.046875 L 0.21875 -2.78125 C 0.21875 -2.789062 0.21875 -2.800781 0.21875 -2.8125 C 0.226562 -2.820312 0.242188 -2.828125 0.265625 -2.828125 L 1.25 -2.828125 C 1.40625 -2.828125 1.546875 -2.789062 1.671875 -2.71875 C 1.796875 -2.644531 1.890625 -2.539062 1.953125 -2.40625 C 2.023438 -2.28125 2.0625 -2.132812 2.0625 -1.96875 C 2.0625 -1.800781 2.019531 -1.648438 1.9375 -1.515625 C 1.863281 -1.390625 1.757812 -1.296875 1.625 -1.234375 C 1.613281 -1.234375 1.609375 -1.226562 1.609375 -1.21875 L 2.078125 -0.0625 C 2.078125 -0.0507812 2.078125 -0.0390625 2.078125 -0.03125 C 2.078125 -0.0078125 2.0625 0 2.03125 0 Z M 0.796875 -2.328125 C 0.785156 -2.328125 0.78125 -2.320312 0.78125 -2.3125 L 0.78125 -1.625 C 0.78125 -1.613281 0.785156 -1.609375 0.796875 -1.609375 L 1.15625 -1.609375 C 1.25 -1.609375 1.328125 -1.640625 1.390625 -1.703125 C 1.453125 -1.765625 1.484375 -1.851562 1.484375 -1.96875 C 1.484375 -2.082031 1.453125 -2.171875 1.390625 -2.234375 C 1.328125 -2.296875 1.25 -2.328125 1.15625 -2.328125 Z M 0.796875 -2.328125 "/></g></g></g></svg>